<?xml version="1.0" encoding="UTF-8"?>
<svg id="Layer_1" data-name="Layer 1" xmlns="http://www.w3.org/2000/svg" viewBox="0 0 44.18 44.18">
  <defs>
    <style>
      .cls-1 {
        fill: #fefefe;
      }

      .cls-2 {
        fill: #e66d2d;
      }

      .cls-3 {
        fill: #e66f30;
      }

      .cls-4 {
        fill: #e66f2f;
      }
    </style>
  </defs>
  <path class="cls-1" d="M26.65,30.08c-.49-.68-.84-1.05-1.54-1.51l.24,1.31,1.29.2Z"/>
  <polygon class="cls-1" points="23.67 28.26 25.76 28.23 24.7 27.15 23.67 28.26"/>
  <path class="cls-1" d="M19.28,19.32c.67,0,.63-.36,1.19-.07l6.87,3.4c.12.06.38.03.38-.03-.04-.62-2.56-4.57-2.83-5.65,1.44,1.09,2.37,2.29,3.59,3.39v.62c-.02.1.02.3.05.39.03.09.38.02.47-.06l2.38-2.37c.08-.08.13-.39.05-.47-.34-.39-.59.34-1.2-.27l-4.48-4.49.04-.51c.01-.13-.02-.33-.05-.43-.03-.1-.41-.01-.51.08l-2.14,2.16,1.69,3.23-3.35-1.57-2.2,2.18c-.08.08-.06.48.04.48Z"/>
  <path class="cls-1" d="M19.98,12.09l.17-.08s-.06-.2-.08-.22l-.8-.77-.77.73c-.06.05-.14.34-.07.35.66.04.33-.35,1.55,0Z"/>
  <path class="cls-1" d="M19.86,13.59l1.18.13c-.55-.7-.8-.95-1.39-1.37l.21,1.25Z"/>
  <path class="cls-1" d="M20.4,20.75c-1.31-.59-2.85-.36-3.86.57.12.47.61.46,1.09.37l4.69,4.67c.3.3-.14,1.15.54,1.24.98-1.01,1.13-2.53.58-3.78-.6-1.38-1.68-2.45-3.04-3.07Z"/>
  <path class="cls-1" d="M25,24.96c.07.01.37-.02.42-.08l1.27-1.28c.06-.06.06-.49-.01-.5h-.3c-.48.07-1,0-1.36-.35l-1.46-1.41c-.31-.3-.87-.52-1.34-.49l2.27,2.31c.87.88.09,1.7.52,1.79Z"/>
  <path class="cls-1" d="M31.49,12.07c-.03.51.52.49.92.47.62-.03.74.51,1.34.24.08-.04,0-.36-.08-.44l-1.97-1.97c-.1-.1-.45-.15-.49-.03-.23.63.37.39.28,1.73Z"/>
  <path class="cls-1" d="M23.75,33.92c.15.15.01.62-.04.82.21-.03.52-.23.62-.44.52-1.06.17-2.15-.69-2.87-.64-.53-1.43-.91-2.27-.65-.37.11-.72.36-.74.68l.72.05,2.4,2.41Z"/>
  <path class="cls-1" d="M28.7,9.42l.47.43c1.52-1.17,2.79.36,2.97-.24.03-.1-.01-.33-.09-.41l-.88-.97h4.79s-27.75-.01-27.75-.01h21.55s-1.06,1.2-1.06,1.2Z"/>
  <path class="cls-1" d="M23.45,35.28c.1-.13.22-.38.26-.54-1.15-.92-2.21-2.04-3.2-3.15-.13.03-.41.16-.51.26l-1.02,1.08.74.19c.92.93,1.75,1.72,2.7,2.81l-8.01.02,1.94-2c.09-.09.15-.45.07-.47-.77-.18-.74.21-1.07-.12l-4.52-4.52c-.27-.27.17-1.07-.13-1.06-.11,0-.32.03-.45.06l-2.02,1.97V8.22s0,22.87,0,22.87c0-.13.07-.32.11-.39.04-.07.37-.02.47.08l4.57,4.55c.14.23.12.63-.04.63h-5.1s0-4.27,0-4.27v4.27h27.75-13.12s.6-.68.6-.68Z"/>
  <path class="cls-1" d="M27.18,12.68l4.55,4.55-.08.61c-.01.1.05.26.14.31.08.05.39-.02.48-.11l2.14-2.14-6.1-6.11-2.18,2.17c-.08.08-.14.39-.07.47.31.35.6-.3,1.14.24Z"/>
  <path class="cls-1" d="M32.88,19.08l1.46.6c.07.03.3-.07.27-.12-.02-.03-.09-.18-.13-.21l-.98-.96c-.23.21-.51.51-.63.68Z"/>
  <path class="cls-1" d="M19.87,16.01l.1.61c.48-.33.91-.77,1.34-1.25l-3.2-3.19c-.47.46-.88.88-1.26,1.33.12.05.5.02.59.11l2.43,2.39Z"/>
  <path class="cls-1" d="M22.52,14.16l-1.07-.97.02,1.99c.44-.39.69-.63,1.06-1.01Z"/>
  <path class="cls-1" d="M26.99,31.2c-.03.09.03.34.1.31.06-.02.2-.08.25-.13l.83-.86-1.16-1.05c.05.74.13,1.27-.02,1.74Z"/>
  <path class="cls-1" d="M22.09,29.79l.71.14,2.66,2.68c-.04.18-.11.46-.04.46.07,0,.3-.06.35-.11l1.11-1.16-3.4-3.4-1.39,1.4Z"/>
  <path class="cls-1" d="M18.46,30.28l-4.58-4.59c-.27-.27.08-.33-.03-.96-.02-.1-.44-.07-.52.02l-2.4,2.41c-.09.09-.09.5.02.5l.39-.02c.12,0,.48-.03.58.07l1.97,1.99-.55.62c-.09.1.06.37.17.43.42.24.69-.74,1.01-.43l1.88,1.85c.5.49-.16.87.21,1.13.09.06.4.02.48-.06l2.37-2.37c.09-.09.15-.43.06-.47-.59-.25-.73.19-1.04-.11Z"/>
  <path class="cls-1" d="M21.25,27.65l-4.8-4.78c.1-.45.08-1.02-.38-1.07-.92.99-1.13,2.42-.64,3.66.57,1.43,1.66,2.54,3.05,3.18,1.33.62,2.94.39,3.92-.59-.13-.62-.89-.14-1.16-.41Z"/>
  <path class="cls-1" d="M26.28,25.58l-1.4,1.44.68.07,2.68,2.7c-.04.17.07.59.16.5l1.58-1.58-.72-.18-2.98-2.96Z"/>
  <path class="cls-1" d="M31.4,20.56l-.75.63.48.6c-.67.06-1.27,0-1.82.61l.85.3,2.49,2.55c.11.11,0,.82.27.54.75-.77.56-2.07-.18-2.83-.68-.69-1.08-1.3-1.34-2.41Z"/>
  <path class="cls-1" d="M35.95,12.9l-.98-.89c-.09-.08-.3-.13-.4-.08-.5.27.79,1.51-.07,2.81-.07.11-.1.37-.07.47.03.12.37.28.46.19l1.06-.98-.02,8.01c-1.25-1.09-2.19-2.1-3.3-3.17l-1.1,1.12,2.95,2.95.17.71,1.32-1.19v13.13s.01-27.62.01-27.62l-.02,4.56Z"/>
  <path class="cls-1" d="M29.34,23.25l-.18-.65c-.76.64-.6,1.43-.43,2.21-.85-.47-1.8-.15-2.22.68.96-.06,1.98,1.07,2.01,2.01.6-.4.87-1.03.89-1.68.91.75,2.29,1.32,3.22.23l-.73-.2-2.57-2.6Z"/>
  <path class="cls-1" d="M14.14,16.87c.67.61,2.26,1.67,2.46,2.45l.15.57c.61-.51,1.11-.99,1.52-1.57l-.6-.08-2.48-2.51v-.44c.01-.07-.29.04-.3.05l-1.26,1.36c-.09.1.42.09.52.18Z"/>
  <path class="cls-1" d="M15.35,15.18c.07.02.41,0,.46.06l1.03,1.02-.26.62.65-.25,1,1.05c.05.06-.02.43.06.45l.28.07c.3-.33.94-.96,1.26-1.26l-.08-.26c-.02-.07-.43-.02-.49-.08l-2.36-2.36c-.06-.06-.05-.45-.07-.52-.01-.08-.16-.04-.27-.04-.3.34-.91.95-1.27,1.28,0,.12-.03.23.05.25Z"/>
  <path class="cls-1" d="M14.43,18.07c0-.06-.04-.25-.08-.29l-.93-.91-.6.65,1.32.56c.06.03.29.06.28,0Z"/>
  <path class="cls-1" d="M14.55,22.16l1.48-1.51c-.1-.07-.54-.12-.63-.22l-2.76-2.74-1.08,1.02,2.46,2.45c.25.25.33.51.54.99Z"/>
  <path class="cls-1" d="M11.99,20.32l-.61-1.41-.64.65,1.11,1.07c.1-.22.16-.34.14-.31Z"/>
  <polygon class="cls-2" points="8.22 31.09 8.22 31.69 8.22 31.08 8.22 31.09"/>
  <path class="cls-2" d="M13.32,35.96c.16,0,.19-.41.04-.63l-4.57-4.55c-.1-.1-.44-.15-.47-.08-.04.07-.11.26-.11.39v4.88s5.11,0,5.11,0Z"/>
  <path class="cls-4" d="M23.71,34.74c.05-.19.19-.67.04-.82l-2.4-2.41-.72-.05-.13.12c.98,1.11,2.05,2.23,3.2,3.15Z"/>
  <path class="cls-4" d="M16.84,13.69c.01.08,0,.46.07.52l2.36,2.36c.06.06.46,0,.49.08l.08.26c.06-.06.15-.21.14-.29l-.1-.61-2.43-2.39c-.1-.1-.47-.06-.59-.11-.08-.03-.22.08-.27.14.11,0,.26-.03.27.04Z"/>
  <path class="cls-3" d="M15.19,15.28v.44s2.47,2.51,2.47,2.51l.6.08c.09.01.24-.07.3-.14l-.28-.07c-.08-.02,0-.39-.06-.45l-1-1.05-.65.25.26-.62-1.03-1.02c-.05-.05-.39-.04-.46-.06-.07-.02-.05-.13-.05-.25-.14.12-.29.27-.42.41,0,0,.31-.12.31-.05Z"/>
  <polygon class="cls-2" points="35.96 8.22 35.96 8.22 35.96 8.34 35.96 8.22"/>
  <path class="cls-2" d="M34.64,24.02l-.17-.71-2.95-2.95,1.1-1.12c1.11,1.07,2.04,2.09,3.3,3.17l.02-8.01-1.06.98c-.09.09-.42-.07-.46-.19-.03-.1,0-.36.07-.47.86-1.3-.43-2.54.07-2.81.1-.05.31,0,.4.08l.98.89.02-4.56v-.12h-4.79s.88.98.88.98c.08.08.12.31.09.41-.18.61-1.46-.93-2.97.24l-.47-.43,1.06-1.2H8.22s0,21.57,0,21.57l2.02-1.97c.13-.02.33-.05.45-.06.3-.02-.14.78.13,1.06l4.52,4.52c.33.33.3-.06,1.07.12.08.02.02.38-.07.47l-1.94,2,8.01-.02c-.95-1.08-1.79-1.88-2.7-2.81l-.74-.19,1.02-1.08c.1-.1.38-.23.51-.26l.13-.12c.02-.33.37-.57.74-.68.83-.26,1.62.12,2.27.65.87.72,1.22,1.81.69,2.87-.1.21-.41.41-.62.44-.04.16-.16.41-.26.54l-.6.68h13.12s-.01-13.13-.01-13.13l-1.32,1.19ZM34.49,19.36s.11.18.13.21c.03.05-.2.15-.27.12l-1.46-.6c.11-.17.39-.47.63-.68l.98.96ZM31.21,10.34c.04-.12.4-.06.49.03l1.97,1.97c.08.08.16.4.08.44-.6.27-.72-.28-1.34-.24-.4.02-.95.04-.92-.47.09-1.34-.51-1.1-.28-1.73ZM26.11,11.96l2.18-2.17,6.1,6.11-2.14,2.14c-.09.09-.4.16-.48.11-.08-.05-.15-.22-.14-.31l.08-.61-4.55-4.55c-.54-.54-.83.11-1.14-.24-.07-.09-.01-.39.07-.47ZM22.52,14.16c-.37.38-.62.62-1.06,1.01l-.02-1.99,1.07.97ZM24.78,18.23l-1.69-3.23,2.14-2.16c.1-.1.48-.19.51-.08.03.1.06.3.05.43l-.04.51,4.48,4.49c.61.61.85-.12,1.2.27.07.08.03.39-.05.47l-2.38,2.37c-.08.08-.44.15-.47.06-.03-.09-.07-.29-.07-.39v-.62c-1.21-1.1-2.13-2.3-3.58-3.39.27,1.08,2.8,5.04,2.83,5.65,0,.06-.26.09-.38.03l-6.87-3.4c-.57-.28-.52.08-1.19.07-.11,0-.13-.39-.04-.48l2.2-2.18,3.35,1.57ZM23.67,28.26l1.03-1.11,1.05,1.08-2.09.03ZM26.65,30.08l-1.29-.2-.24-1.31c.69.46,1.04.83,1.54,1.51ZM22.86,27.6c-.67-.09-.24-.94-.54-1.24l-4.69-4.67c-.47.09-.97.1-1.09-.37,1.02-.93,2.55-1.16,3.86-.57,1.36.61,2.44,1.69,3.04,3.07.55,1.25.4,2.77-.58,3.78ZM24.49,23.17l-2.27-2.31c.47-.02,1.03.2,1.34.49l1.46,1.41c.36.35.88.43,1.36.34h.3c.07.02.07.45.01.51l-1.27,1.28c-.05.05-.35.09-.42.08-.43-.09.35-.91-.52-1.79ZM21.04,13.71l-1.18-.13-.21-1.25c.59.42.85.67,1.39,1.37ZM18.51,11.75l.77-.73.8.77s.1.21.08.22l-.17.08c-1.23-.34-.89.05-1.55,0-.07,0,.02-.3.07-.35ZM14.88,15.33c.12-.13.28-.29.42-.41.37-.33.98-.94,1.27-1.28.06-.06.2-.18.27-.14.37-.45.79-.87,1.26-1.33l3.2,3.19c-.42.48-.86.93-1.34,1.25.01.08-.07.24-.14.29-.33.3-.96.94-1.26,1.26-.06.06-.22.15-.3.14-.4.59-.91,1.06-1.52,1.57l-.15-.57c-.2-.78-1.79-1.84-2.46-2.45-.09-.08-.61-.08-.52-.18l1.26-1.36ZM13.42,16.87l.93.91s.07.23.08.29c0,.06-.22.03-.28,0l-1.32-.56.6-.65ZM12.63,17.7l2.76,2.74c.1.1.54.15.63.22l-1.48,1.51c-.21-.48-.29-.74-.54-.99l-2.46-2.45,1.08-1.02ZM10.74,19.56l.64-.65.61,1.41s-.04.08-.14.31l-1.11-1.07ZM19.44,30.86l-2.37,2.37c-.08.08-.39.12-.48.06-.37-.26.28-.64-.21-1.13l-1.88-1.85c-.32-.31-.59.66-1.01.43-.11-.06-.25-.34-.17-.43l.55-.62-1.97-1.99c-.1-.1-.46-.07-.58-.07l-.39.02c-.11,0-.11-.4-.02-.5l2.4-2.41c.08-.08.5-.11.52-.02.11.63-.24.69.03.96l4.58,4.59c.3.3.45-.14,1.04.11.09.04.03.38-.06.47ZM18.49,28.65c-1.38-.64-2.48-1.76-3.05-3.18-.5-1.25-.29-2.68.64-3.66.45.05.47.62.38,1.07l4.8,4.78c.27.27,1.03-.21,1.16.41-.98.98-2.59,1.2-3.92.59ZM25.78,32.95c-.05.06-.28.11-.35.11-.07,0,0-.27.04-.46l-2.66-2.68-.71-.14,1.39-1.4,3.4,3.4-1.11,1.16ZM27.34,31.38c-.05.05-.2.12-.25.13-.07.02-.13-.22-.1-.31.16-.46.08-1,.02-1.74l1.16,1.05-.83.86ZM28.41,30.3c-.09.09-.2-.34-.16-.5l-2.68-2.7-.68-.07,1.4-1.44,2.98,2.96.72.18-1.58,1.58ZM29.43,25.81c-.03.65-.29,1.28-.89,1.68-.03-.93-1.06-2.07-2.01-2.01.41-.82,1.37-1.15,2.22-.68-.17-.79-.33-1.57.43-2.21l.18.65,2.57,2.6.73.2c-.92,1.09-2.31.51-3.22-.23ZM32.92,25.8c-.27.28-.16-.43-.27-.54l-2.49-2.55-.85-.3c.55-.6,1.14-.54,1.82-.61l-.48-.6.75-.63c.25,1.1.65,1.71,1.34,2.41.74.75.93,2.05.18,2.83Z"/>
</svg>